# AST/ASF file generated using VICON BodyLanguage
# -----------------------------------------------
:version 1.10
:name VICON
:units
  mass 1.0
  length 0.45
  angle deg
:documentation
   .ast/.asf automatically generated from VICON data using
   VICON BodyBuilder and BodyLanguage model FoxedUp or BRILLIANT.MOD
:root
   order TX TY TZ RX RY RZ
   axis XYZ
   position 0 0 0  
   orientation 0 0 0 
:bonedata
  begin
     id 1 
     name lhipjoint
     direction 0.528046 -0.759594 0.379717 
     length 2.39752 
     axis 0 0 0  XYZ
  end
  begin
     id 2 
     name lfemur
     direction 0.34202 -0.939693 0  
     length 7.31175  
     axis 0 0 20  XYZ
    dof rx ry rz
    limits (-160.0 20.0)
           (-70.0 70.0)
           (-60.0 70.0)
  end
  begin
     id 3 
     name ltibia
     direction 0.34202 -0.939693 0   
     length 7.52482   
     axis 0 0 20   XYZ
    dof rx
    limits (-10.0 170.0)
  end
  begin
     id 4 
     name lfoot
     direction 0.0675379 -0.185559 0.980309   
     length 2.00961   
     axis -90 7.62852e-016 20   XYZ
    dof rx rz
    limits (-45.0 90.0)
           (-70.0 20.0)
  end
  begin
     id 5 
     name ltoes
     direction 1.5352e-011 -4.22286e-011 1   
     length 1.01383   
     axis -90 7.62852e-016 20   XYZ
    dof rx
    limits (-90.0 20.0)
  end
  begin
     id 6 
     name rhipjoint
     direction -0.510274 -0.769251 0.384544   
     length 2.36742  
     axis 0 0 0  XYZ 
  end
  begin
     id 7 
     name rfemur
     direction -0.34202 -0.939693 0   
     length 7.45325   
     axis 0 0 -20   XYZ
    dof rx ry rz
    limits (-160.0 20.0)
           (-70.0 70.0)
           (-70.0 60.0)
  end
  begin
     id 8 
     name rtibia
     direction -0.34202 -0.939693 0   
     length 7.49587   
     axis 0 0 -20   XYZ
    dof rx
    limits (-10.0 170.0)
 end
 begin
     id 9 
     name rfoot
     direction -0.106475 -0.292536 0.950308   
     length 2.20898  
     axis -90 -7.62852e-016 -20   XYZ
    dof rx rz
    limits (-45.0 90.0)
           (-20.0 70.0)
  end
  begin
     id 10 
     name rtoes
     direction -1.53597e-011 -4.22023e-011 1   
     length 1.10065   
     axis -90 -7.62852e-016 -20   XYZ
    dof rx
    limits (-90.0 20.0)
  end
  begin
     id 11 
     name lowerback
     direction 0.0260024 0.998026 -0.0571652   
     length 2.11214   
     axis 0 0 0   XYZ
    dof rx ry rz
    limits (-20.0 45.0)
           (-30.0 30.0)
           (-30.0 30.0)
  end
  begin
     id 12 
     name upperback
     direction 0.0216202 0.999542 -0.0211766   
     length 2.11689   
     axis 0 0 0   XYZ
    dof rx ry rz
    limits (-20.0 45.0)
           (-30.0 30.0)
           (-30.0 30.0)
  end
  begin
     id 13 
     name thorax
     direction 0.00883312 0.999944 0.00589057   
     length 2.11821   
     axis 0 0 0   XYZ
    dof rx ry rz
    limits (-20.0 45.0)
           (-30.0 30.0)
           (-30.0 30.0)
  end
  begin
     id 14 
     name lowerneck
     direction -0.059386 0.994433 0.0870401   
     length 1.81176   
     axis 0 0 0   XYZ
    dof rx ry rz
    limits (-20.0 45.0)
           (-30.0 30.0)
           (-30.0 30.0)
  end
  begin
     id 15 
     name upperneck
     direction 0.0506457 0.97328 -0.223967   
     length 1.82382   
     axis 0 0 0   XYZ
    dof rx ry rz
    limits (-20.0 45.0)
           (-30.0 30.0)
           (-30.0 30.0)
  end
  begin
     id 16
     name head
     direction 0.0205902 0.996147 -0.0852487  
     length 1.84805  
     axis 0 0 0   XYZ
    dof rx ry rz
    limits (-20.0 45.0)
           (-30.0 30.0)
           (-30.0 30.0)
  end
  begin
     id 17 
     name lclavicle
     direction 0.949493 0.303881 -0.0782325  
     length 3.60584  
     axis 0 0 0   XYZ
    dof ry rz
    limits (-20.0 10.0)
           (0.0 20.0)
  end
  begin
     id 18 
     name lhumerus
     direction 1 -4.48965e-011 1.48782e-027   
     length 4.95681   
     axis 180 -30 -90   XYZ
    dof rx ry rz
    limits (-60.0 90.0)
           (-90.0 90.0)
           (-90.0 90.0)
  end
  begin
     id 19
     name lradius
     direction 1 -4.48952e-011 2.06528e-027   
     length 3.40915   
     axis 180 -30 -90   XYZ
    dof rx
    limits (-10.0 170.0)
  end
  begin
     id 20
     name lwrist
     direction 1 -4.48964e-011 1.28021e-027   
     length 1.70457   
     axis -1.61767e-015 90 90   XYZ
    dof ry
    limits (-180.0 0.0)
 end
  begin
     id 21 
     name lhand
     direction 1 -4.49094e-011 2.54887e-027   
     length 0.616403   
     axis -1.63363e-015 90 90   XYZ
    dof rx rz
    limits (-90.0 90.0)
           (-45.0 45.0)
  end
  begin
     id 22 
     name lfingers
     direction 1 -4.49002e-011 5.11407e-027   
     length 0.49696   
     axis -3.26723e-015 90 90   XYZ
    dof rx
    limits (0.0 90.0)
  end
  begin
     id 23
     name lthumb
     direction 0.707107 -6.34998e-011 0.707107   
     length 0.713539   
     axis -90 45 -2.25915e-014   XYZ
    dof rx rz
    limits (-45.0 45.0)
           (-45.0 45.0)
  end
  begin
     id 24 
     name rclavicle
     direction -0.937751 0.334612 -0.0930482   
     length 3.46287  
     axis 0 0 0   XYZ 
    dof ry rz
    limits (-10.0 20.0)
           (-20.0 0.0)
  end
  begin
     id 25 
     name rhumerus
     direction -1 -4.48962e-011 3.59972e-027  
     length 5.352   
     axis 180 30 90   XYZ
    dof rx ry rz
    limits (-90.0 60.0)
           (-90.0 90.0)
           (-90.0 90.0)
  end
  begin
     id 26 
     name rradius
     direction -1 -4.48987e-011 -3.76925e-027   
     length 3.43721   
     axis 180 30 90   XYZ
    dof rx
    limits (-10.0 170.0)
  end
  begin
     id 27 
     name rwrist
     direction -1 -4.48943e-011 1.28112e-027   
     length 1.7186   
     axis -1.61767e-015 -90 -90   XYZ
    dof ry
    limits (-180.0 0.0)
  end
  begin
     id 28
     name rhand
     direction -1 -4.49027e-011 2.55483e-027   
     length 0.72009   
     axis -1.63363e-015 -90 -90   XYZ
    dof rx rz
    limits (-90.0 90.0)
           (-45.0 45.0)
  end
  begin
     id 29
     name rfingers
     direction -1 -4.48827e-011 5.14506e-027   
     length 0.580555   
     axis -3.26723e-015 -90 -90   XYZ
    dof rx
    limits (0.0 90.0)
  end
  begin
     id 30
     name rthumb
     direction -0.707107 -6.34936e-011 0.707107   
     length 0.833564   
     axis -90 -45 2.25915e-014   XYZ
    dof rx rz
    limits (-45.0 45.0)
           (-45.0 45.0)
  end
:hierarchy
  begin
    root lhipjoint rhipjoint lowerback
    lhipjoint lfemur
    lfemur ltibia
    ltibia lfoot
    lfoot ltoes
    rhipjoint rfemur
    rfemur rtibia
    rtibia rfoot
    rfoot rtoes
    lowerback upperback
    upperback thorax
    thorax lowerneck lclavicle rclavicle
    lowerneck upperneck
    upperneck head
    lclavicle lhumerus
    lhumerus lradius
    lradius lwrist
    lwrist lhand lthumb
    lhand lfingers
    rclavicle rhumerus
    rhumerus rradius
    rradius rwrist
    rwrist rhand rthumb
    rhand rfingers
  end

#!OML:ASF H:\Terrain\Patient Classification 1\Terrain2\Thursday\justin.ASF
:FULLY-SPECIFIED
:DEGREES
299
root 4.02457 19.742 -0.256312 459.623 -81.6169 -454.119
lowerback 17.7018 1.91308 7.75495
upperback 3.08995 3.90892 2.60455
thorax -6.22837 1.66448 -2.45692
lowerneck -16.2639 -3.81833 -10.0084
upperneck 31.512 -6.2928 8.85634
head 14.0747 -3.01809 4.19778
rclavicle -6.26172e-015 1.03368e-014
rhumerus -24.2082 1.31049 -85.5299
rradius 34.8984
rwrist -11.5191
rhand -21.0449 7.74061
rfingers 7.12502
rthumb 5.33095 -22.1723
lclavicle -6.26172e-015 1.03368e-014
lhumerus -31.281 -0.0486197 85.0394
lradius 27.4937
lwrist 2.13841
lhand -17.2866 18.968
lfingers 7.12502
lthumb 8.95881 48.7578
rfemur 15.6096 -0.793163 29.756
rtibia 6.67916e-014
rfoot 39.7713 3.29023
rtoes 2.39116
lfemur -66.1979 4.59732 -13.5397
ltibia 90.0987
lfoot -20.7334 -20.0356
ltoes 23.5502
300
root 3.90952 19.8873 -0.253074 460.815 -81.8072 -454.871
lowerback 17.5745 1.9982 7.35163
upperback 3.02024 3.94233 2.52775
thorax -6.25531 1.69003 -2.3178
lowerneck -16.5955 -3.84206 -9.93687
upperneck 31.4934 -6.28796 8.81664
head 14.1359 -2.99959 4.16757
rclavicle -1.99779e-014 -1.31198e-014
rhumerus -24.2737 1.09712 -85.5224
rradius 33.8675
rwrist -10.5073
rhand -20.6004 8.45023
rfingers 7.12502
rthumb 5.76015 -21.4515
lclavicle -1.99779e-014 -1.31198e-014
lhumerus -31.3125 -0.597437 85.2382
lradius 27.9681
lwrist 3.19142
lhand -17.035 19.1178
lfingers 7.12502
lthumb 9.20162 48.8971
rfemur 12.9071 -0.712184 29.3675
rtibia 4.61921
rfoot 38.0178 3.37421
rtoes 2.14486
lfemur -65.2795 4.55162 -13.7356
ltibia 88.7958
lfoot -20.9668 -19.8104
ltoes 22.4843
301
root 3.79276 20.0294 -0.249108 460.41 -82.0366 -453.96
lowerback 17.2669 1.98455 6.94859
upperback 2.95348 3.83264 2.45289
thorax -6.1932 1.65108 -2.13779
lowerneck -16.7261 -3.85389 -9.71707
upperneck 31.2709 -6.29223 8.72109
head 14.0546 -2.97619 4.07979
rclavicle -3.46879e-014 -1.21259e-014
rhumerus -24.3593 1.08565 -85.6069
rradius 33.0062
rwrist -9.26312
rhand -19.7637 9.04092
rfingers 7.12502
rthumb 6.56793 -20.8372
lclavicle -3.46879e-014 -1.21259e-014
lhumerus -31.3708 -1.00649 85.3657
lradius 28.5055
lwrist 4.04455
lhand -17.0597 19.4681
lfingers 7.12502
lthumb 9.17772 49.2483
rfemur 9.87094 -0.865435 28.916
rtibia 9.90241
rfoot 35.8988 2.07025
rtoes 4.88041
lfemur -64.3944 4.18541 -13.9223
ltibia 87.4537
lfoot -20.7704 -19.9236
ltoes 23.5341
302
root 3.67185 20.1946 -0.238822 459.111 -82.058 -452.406
lowerback 17.1624 1.82018 6.76073
upperback 2.89887 3.58672 2.54513
thorax -6.23435 1.53514 -1.87991
lowerneck -16.8536 -3.75924 -9.68749
upperneck 31.2769 -6.05925 8.47992
head 14.0456 -2.89865 4.01505
rclavicle -1.49089e-014 -2.78299e-015
rhumerus -24.6578 1.62757 -85.7621
rradius 32.5024
rwrist -8.24759
rhand -19.6745 8.73156
rfingers 7.12502
rthumb 6.65402 -21.1439
lclavicle -1.49089e-014 -2.78299e-015
lhumerus -31.5512 -0.798574 85.4941
lradius 28.9302
lwrist 4.53082
lhand -17.4656 19.2823
lfingers 7.12502
lthumb 8.78609 49.0795
rfemur 7.89633 -1.10042 28.6824
rtibia 13.6721
rfoot 34.5398 0.358101
rtoes 8.62762
lfemur -63.0547 3.76512 -13.8542
ltibia 86.01
lfoot -20.8448 -19.8569
ltoes 24.2529
303
root 3.5537 20.324 -0.238329 459.22 -81.6894 -452.547
lowerback 17.3023 1.7504 6.77451
upperback 2.90154 3.52041 2.81509
thorax -6.32965 1.49718 -1.591
lowerneck -16.869 -3.64156 -9.76333
upperneck 31.209 -5.72956 8.1538
head 13.9694 -2.80385 3.94893
rclavicle -2.3059e-014 -5.36719e-015
rhumerus -24.8651 1.30989 -85.4337
rradius 31.7944
rwrist -6.08412
rhand -18.6298 9.01765
rfingers 7.12502
rthumb 7.66243 -20.8235
lclavicle -2.3059e-014 -5.36719e-015
lhumerus -31.6377 -0.281985 85.6492
lradius 29.1465
lwrist 4.79242
lhand -17.7161 18.8224
lfingers 7.12502
lthumb 8.54436 48.6295
rfemur 6.47873 -1.2905 28.92
rtibia 16.9252
rfoot 33.8172 -0.397072
rtoes 10.4852
lfemur -61.7182 3.80308 -13.4
ltibia 84.8671
lfoot -21.4222 -19.5249
ltoes 22.2341
304
root 3.43916 20.4547 -0.238942 459.895 -81.653 -453.096
lowerback 17.247 1.79616 6.58193
upperback 2.95062 3.53824 2.85628
thorax -6.26038 1.51271 -1.44024
lowerneck -17.0022 -3.63426 -9.5694
upperneck 30.9715 -5.63188 7.87884
head 13.8669 -2.7613 3.81078
rclavicle -1.31198e-014 4.96962e-015
rhumerus -24.6418 -1.00407 -84.5158
rradius 30.5251
rwrist -0.738317
rhand -15.1969 10.8339
rfingers 7.12502
rthumb 10.9749 -18.8592
lclavicle -1.31198e-014 4.96962e-015
lhumerus -31.3967 -0.308585 85.7432
lradius 29.3364
lwrist 5.41806
lhand -17.7439 18.7645
lfingers 7.12502
lthumb 8.51754 48.5727
rfemur 4.92401 -1.97208 28.8176
rtibia 19.9301
rfoot 33.769 0.251058
rtoes 8.61392
lfemur -60.5595 3.7958 -13.3135
ltibia 83.7232
lfoot -21.783 -19.3257
ltoes 21.2032
305
root 3.32393 20.5819 -0.246271 460.198 -81.8312 -453.274
lowerback 17.1329 1.86992 6.1062
upperback 3.00747 3.53814 2.86928
thorax -6.16847 1.52728 -1.15542
lowerneck -17.0929 -3.6591 -9.58144
upperneck 30.7449 -5.64825 7.95795
head 13.7937 -2.74974 3.83544
rclavicle 5.64548e-014 4.96962e-015
rhumerus -25.0141 1.18731 -85.6746
rradius 30.8808
rwrist -7.30596
rhand -19.8406 9.2328
rfingers 7.12502
rthumb 6.49367 -20.6476
lclavicle 5.64548e-014 4.96962e-015
lhumerus -31.2995 -0.522545 85.8502
lradius 29.7266
lwrist 6.19702
lhand -17.6409 18.6467
lfingers 7.12502
lthumb 8.61692 48.4508
rfemur 3.20016 -2.79251 28.5526
rtibia 23.2346
rfoot 33.6908 1.28763
rtoes 4.07526
lfemur -59.3933 3.59912 -13.3932
ltibia 82.5604
lfoot -22.033 -19.0919
ltoes 20.9429
306
root 3.20747 20.7103 -0.25742 459.856 -81.6243 -452.987
lowerback 17.162 1.91288 5.95621
upperback 3.0536 3.57254 3.02647
thorax -6.15277 1.54677 -0.9117
lowerneck -16.9779 -3.69516 -9.878
upperneck 30.4984 -5.71761 8.33567
head 13.6944 -2.76334 4.02302
rclavicle -1.10325e-014 -3.29983e-014
rhumerus -25.0084 -1.63335 -84.3862
rradius 29.6054
rwrist -0.790998
rhand -16.5746 11.1951
rfingers 7.12502
rthumb 9.64578 -18.564
lclavicle -1.10325e-014 -3.29983e-014
lhumerus -31.4055 -0.493402 85.9101
lradius 30.1625
lwrist 6.44633
lhand -17.7832 18.6382
lfingers 7.12502
lthumb 8.47956 48.448
rfemur 1.7064 -3.31831 28.7296
rtibia 26.6033
rfoot 33.4054 0.993769
rtoes 2.27022
lfemur -58.0498 3.49677 -13.0613
ltibia 81.3455
lfoot -22.4774 -18.7092
ltoes 18.8159
307
root 3.09544 20.8525 -0.241959 459.362 -81.9427 -452.303
lowerback 16.9961 1.87551 5.62151
upperback 2.99892 3.45895 2.97759
thorax -6.14574 1.50136 -0.747796
lowerneck -16.8673 -3.68857 -10.007
upperneck 30.3273 -5.70637 8.47661
head 13.6048 -2.75467 4.10003
rclavicle 3.00165e-014 1.88845e-014
rhumerus -25.3204 -2.6103 -83.7905
rradius 29.1592
rwrist 1.33764
rhand -15.5956 11.828
rfingers 7.12502
rthumb 10.5902 -17.8852
lclavicle 3.00165e-014 1.88845e-014
lhumerus -31.4147 -0.338649 85.9481
lradius 30.4547
lwrist 6.52559
lhand -17.6398 18.9754
lfingers 7.12502
lthumb 8.61793 48.7795
rfemur -0.0408807 -4.04981 28.178
rtibia 30.0628
rfoot 33.0771 -0.533127
rtoes 4.70373
lfemur -56.8441 3.06468 -13.4096
ltibia 79.9494
lfoot -22.7613 -18.2044
ltoes 17.2886
308
root 2.98277 20.9846 -0.224491 458.984 -82.5495 -451.815
lowerback 16.8395 1.78006 5.04205
upperback 2.96618 3.22302 2.84859
thorax -6.13352 1.4023 -0.506395
lowerneck -16.7866 -3.54958 -9.99254
upperneck 30.3084 -5.51094 8.46244
head 13.5532 -2.67299 4.12453
rclavicle -1.25234e-014 -2.8625e-014
rhumerus -25.6255 -2.83647 -83.712
rradius 28.9501
rwrist 1.3869
rhand -16.1577 11.5537
rfingers 7.12502
rthumb 10.048 -18.1865
lclavicle -1.25234e-014 -2.8625e-014
lhumerus -31.4599 0.0352772 85.9218
lradius 30.7774
lwrist 6.73426
lhand -17.1156 18.8965
lfingers 7.12502
lthumb 9.12378 48.6791
rfemur -1.71077 -4.83007 27.2908
rtibia 33.6475
rfoot 32.6747 -2.79924
rtoes 8.76752
lfemur -55.4836 2.52522 -14.0571
ltibia 78.471
lfoot -22.8109 -17.71
ltoes 16.6299
309
root 2.8693 21.1051 -0.221387 458.446 -82.9712 -451.423
lowerback 16.8065 1.70149 4.5845
upperback 3.06729 3.02482 2.73634
thorax -6.0337 1.31827 -0.324769
lowerneck -16.7068 -3.39329 -9.83455
upperneck 30.1524 -5.33078 8.48693
head 13.4416 -2.57246 4.13194
rclavicle -5.2181e-014 -2.68359e-014
rhumerus -25.701 -3.27411 -83.898
rradius 28.6647
rwrist 0.480263
rhand -17.6194 11.231
rfingers 7.12502
rthumb 8.63766 -18.5723
lclavicle -5.2181e-014 -2.68359e-014
lhumerus -31.4152 0.342587 85.7902
lradius 31.1115
lwrist 6.88949
lhand -17.7375 18.589
lfingers 7.12502
lthumb 8.52368 48.397
rfemur -3.17027 -5.55798 26.741
rtibia 37.2775
rfoot 32.2268 -3.61153
rtoes 8.32937
lfemur -53.8568 2.23773 -14.4636
ltibia 76.9699
lfoot -22.7233 -17.4931
ltoes 16.5525
310
root 2.75946 21.2287 -0.220145 457.979 -83.3215 -451.022
lowerback 16.7506 1.64447 4.13969
upperback 3.11238 2.86529 2.68868
thorax -5.98113 1.25144 -0.0897594
lowerneck -16.5684 -3.27746 -9.69597
upperneck 29.9541 -5.16558 8.3953
head 13.2997 -2.49536 4.09149
rclavicle -1.2424e-014 -2.24627e-014
rhumerus -25.933 -2.65113 -84.3866
rradius 28.7629
rwrist -3.34737
rhand -20.237 10.9012
rfingers 7.12502
rthumb 6.11096 -18.9906
lclavicle -1.2424e-014 -2.24627e-014
lhumerus -31.329 0.0524383 85.8454
lradius 31.3584
lwrist 7.64487
lhand -18.9796 18.763
lfingers 7.12502
lthumb 7.32483 48.6162
rfemur -4.69683 -6.56644 26.3074
rtibia 40.7351
rfoot 32.0371 -2.13899
rtoes 1.8875
lfemur -52.4059 2.0949 -14.8094
ltibia 75.5104
lfoot -22.6056 -17.5581
ltoes 17.0972
311
root 2.65085 21.3511 -0.220832 458.186 -83.4718 -451.272
lowerback 16.7271 1.61772 3.80675
upperback 3.07139 2.77908 2.73331
thorax -6.0339 1.21616 0.163055
lowerneck -16.469 -3.20732 -9.68823
upperneck 30.0331 -5.04381 8.25924
head 13.2924 -2.46448 4.05788
rclavicle -1.2921e-014 -1.19271e-015
rhumerus -26.2491 -3.33922 -84.0112
rradius 28.5769
rwrist -3.38295
rhand -20.1154 11.4988
rfingers 7.12502
rthumb 6.22844 -18.3896
lclavicle -1.2921e-014 -1.19271e-015
lhumerus -31.2651 -0.467397 86.0848
lradius 31.441
lwrist 8.8718
lhand -20.1673 19.0091
lfingers 7.12502
lthumb 6.17833 48.899
rfemur -6.11702 -7.04549 26.0461
rtibia 44.1462
rfoot 31.6294 -3.13345
rtoes 1.97722
lfemur -51.0956 2.12034 -14.9523
ltibia 74.1329
lfoot -22.5458 -17.582
ltoes 16.8575
312
root 2.54389 21.4539 -0.21424 458.596 -83.6644 -451.83
lowerback 16.7391 1.63899 3.58052
upperback 3.10664 2.7642 2.69443
thorax -6.01219 1.21371 0.252244
lowerneck -16.4985 -3.23935 -9.6057
upperneck 30.1522 -5.11653 8.21631
head 13.3539 -2.49524 4.01757
rclavicle -2.67365e-014 -2.94201e-014
rhumerus -26.5375 -4.06723 -83.7525
rradius 28.5556
rwrist -3.86429
rhand -20.2847 11.3265
rfingers 7.12502
rthumb 6.06494 -18.5667
lclavicle -2.67365e-014 -2.94201e-014
lhumerus -31.1313 -0.765979 86.2558
lradius 31.5825
lwrist 9.7449
lhand -21.2915 18.8135
lfingers 7.12502
lthumb 5.09291 48.7323
rfemur -7.37713 -8.151 25.8482
rtibia 47.4492
rfoot 31.3929 1.72337
rtoes -12.6967
lfemur -49.7589 2.1505 -15.1737
ltibia 72.8462
lfoot -22.3172 -17.6966
ltoes 17.778
